<svg xmlns="http://www.w3.org/2000/svg" viewBox="0 0 193.02 93.61"><defs><style>.a{font-size:12px;stroke:#e30613;font-family:MyriadPro-Regular, Myriad Pro;}.a,.j,.m{fill:#e30613;}.a,.b,.i,.k,.l,.m{stroke-miterlimit:10;}.b{fill:none;}.b,.c,.d,.e,.g,.h,.i,.j,.k,.l,.m{stroke:#1d1d1b;}.b,.h,.i{stroke-width:2px;}.c{fill:#274294;}.c,.d,.e,.g,.h,.j{stroke-linecap:round;stroke-linejoin:round;}.c,.d,.e,.g,.j{stroke-width:0.5px;}.d,.f,.i{fill:#1d1d1b;}.e{fill:#e6361e;}.g,.h{fill:#27348b;}.k{fill:#312783;}.k,.l,.m{stroke-width:0.25px;}.l{fill:#f6f6f6;}</style></defs><text class="a" transform="matrix(0.75, -0.22, 0.28, 0.96, 51.36, 63.62)">L</text><text class="a" transform="matrix(0.75, -0.2, 0.25, 0.97, 55.54, 62.38)">A</text><text class="a" transform="matrix(0.76, -0.18, 0.23, 0.97, 61, 60.97)"> </text><text class="a" transform="matrix(0.76, -0.16, 0.21, 0.98, 62.88, 60.51)">B</text><text class="a" transform="matrix(0.77, -0.14, 0.17, 0.98, 67.77, 59.46)">O</text><text class="a" transform="matrix(0.77, -0.11, 0.14, 0.99, 74.03, 58.36)">U</text><text class="a" transform="matrix(0.77, -0.08, 0.11, 0.99, 79.95, 57.55)">T</text><text class="a" transform="matrix(0.78, -0.07, 0.09, 1, 84.54, 57.07)">I</text><text class="a" transform="matrix(0.78, -0.05, 0.06, 1, 86.71, 56.85)">Q</text><text class="a" transform="matrix(0.78, -0.03, 0.03, 1, 93.08, 56.46)">U</text><text class="a" transform="matrix(0.78, 0, 0, 1, 99.05, 56.27)">E</text><text class="a" transform="matrix(0.78, 0.01, -0.01, 1, 103.59, 56.27)"> </text><text class="a" transform="matrix(0.78, 0.02, -0.03, 1, 105.56, 56.29)">F</text><text class="a" transform="matrix(0.78, 0.04, -0.06, 1, 110.03, 56.43)">R</text><text class="a" transform="matrix(0.78, 0.07, -0.09, 1, 115.05, 56.71)">A</text><text class="a" transform="matrix(0.77, 0.09, -0.12, 0.99, 120.68, 57.19)">N</text><text class="a" transform="matrix(0.77, 0.11, -0.15, 0.99, 126.72, 57.91)">C</text><text class="a" transform="matrix(0.77, 0.14, -0.18, 0.98, 132.05, 58.7)">A</text><text class="a" transform="matrix(0.76, 0.15, -0.2, 0.98, 137.63, 59.72)">I</text><text class="a" transform="matrix(0.76, 0.17, -0.22, 0.98, 139.79, 60.15)">S</text><text class="a" transform="matrix(0.76, 0.19, -0.24, 0.97, 144.24, 61.14)">E</text><text class="a" transform="matrix(0.75, 0.2, -0.26, 0.97, 148.66, 62.24)"> </text><path class="b" d="M1.54,55.25c9.78-4,43.53-16.5,84.81-7.76a135.59,135.59,0,0,1,34.19,12.16" transform="translate(43.38 -3.14)"/><path class="c" d="M112.23-5.87" transform="translate(43.38 -3.14)"/><path class="d" d="M110.19,18.13c-.47.49-2-.33-4-1.35-1.42-.74-6.86-3.6-6.42-4.83.35-1,4.62-1.11,7.5,1C109.52,14.59,110.82,17.48,110.19,18.13Z" transform="translate(43.38 -3.14)"/><path class="e" d="M61-9" transform="translate(43.38 -3.14)"/><path class="e" d="M72-16.15" transform="translate(43.38 -3.14)"/><path class="e" d="M72.41-2.82" transform="translate(43.38 -3.14)"/><path class="e" d="M120.57,46.55" transform="translate(43.38 -3.14)"/><path class="f" d="M70,57.19" transform="translate(43.38 -3.14)"/><path class="f" d="M119.4,39.71" transform="translate(43.38 -3.14)"/><path class="f" d="M30.85,60.43" transform="translate(43.38 -3.14)"/><path class="c" d="M79.11,57.19" transform="translate(43.38 -3.14)"/><path class="e" d="M132,55.46" transform="translate(43.38 -3.14)"/><path class="g" d="M38.73,13.64" transform="translate(43.38 -3.14)"/><path class="g" d="M93.07,3.43" transform="translate(43.38 -3.14)"/><path class="g" d="M37.17,57.3" transform="translate(43.38 -3.14)"/><path class="h" d="M79,5.59c11.25,2.38,19.35,7,25.9,10.71,3,1.71,5.26,3.21,9.79,6.21,7.64,5.08,14.14,9.41,20.38,15.64,2.2,2.2,4.73,5,5.16,8.67.12,1,.42,3.54-1.35,5.35-.55.56-2,1.78-6.44,1.9a32.74,32.74,0,0,1-15.72-4l-13.67-3-19.17-6.5a79.55,79.55,0,0,0-12.52-2.76c-1.73-.23-4.58-.47-10.23-.94-5.83-.48-8.75-.72-9.08-.73C43,36,37.08,39,31.78,38.28c-1-.14-4.25-.42-6.53-2.65h0A18.26,18.26,0,0,1,20.92,31h0a15.72,15.72,0,0,1-.27-7.69C22.8,13.9,33.66,10.39,35,10A72.42,72.42,0,0,1,58.83,4.31,76.43,76.43,0,0,1,79,5.59Z" transform="translate(43.38 -3.14)"/><path class="i" d="M38.67,31.88c5.94-1.31,11-1.15,17.59-.52,7.76.75,13.63,1.75,19.39,2.74,3.78.65,7.87,1.43,16,3.1,5.15,1.06,7.88,1.67,10.37,2.28,1.68.4,2.18.54,4.23,1.07,1.89.49,3.06.78,4,1,4.23,1.08,6.39,1.93,13.38,4,4.83,1.45,6.73,1.92,7.64,3.78a4.17,4.17,0,0,1,.22,3.26c-.76,1.83-3,2.33-3.6,2.45-2.23.5-2.88-.51-8.29-2.17-3.14-1-6.57-1.74-9.33-2.58l-1.35-.4c-1.42-.41-2.19-.59-4.87-1.4-3.37-1-4.78-1.51-8.54-2.53-3.27-.89-8-2.1-13.94-3.29-4.42-.91-8.43-1.51-11.92-1.89A139.66,139.66,0,0,0,54.17,40c-6,0-11.39,0-11.43,0h0a40.66,40.66,0,0,0-4.76.33c-2.86.37-3.76.79-5,.28-1.66-.67-3.13-2.67-2.87-4.3C30.52,33.72,35.44,32.59,38.67,31.88Z" transform="translate(43.38 -3.14)"/><path class="j" d="M107.79,2.11" transform="translate(43.38 -3.14)"/><path class="i" d="M47.16,44.4" transform="translate(43.38 -3.14)"/><path class="h" d="M139.66,57.18" transform="translate(43.38 -3.14)"/><path class="h" d="M134.63,43.73" transform="translate(43.38 -3.14)"/><path class="i" d="M126.69,58.79" transform="translate(43.38 -3.14)"/><path class="i" d="M101.07,39.57" transform="translate(43.38 -3.14)"/><path class="i" d="M88.31,30.61" transform="translate(43.38 -3.14)"/><path class="i" d="M115.07,52.52" transform="translate(43.38 -3.14)"/><path class="i" d="M105.45,50.05" transform="translate(43.38 -3.14)"/><path class="i" d="M110.59,53.75" transform="translate(43.38 -3.14)"/><path class="i" d="M63.68,45.79" transform="translate(43.38 -3.14)"/><path class="i" d="M57.58,44.19" transform="translate(43.38 -3.14)"/><path class="i" d="M135.13,58.2" transform="translate(43.38 -3.14)"/><path class="i" d="M41.2,45.1" transform="translate(43.38 -3.14)"/><path class="k" d="M109.64,60.67l.26-2.78a9.4,9.4,0,0,1,3.06.93,9.53,9.53,0,0,1,2.6,1.88l-1.17,1.56a16.93,16.93,0,0,0-2.61-1.07A16.48,16.48,0,0,0,109.64,60.67Z" transform="translate(43.38 -3.14)"/><path class="l" d="M109.58,61.21,109.35,63a10.15,10.15,0,0,0,1.94.74,9.57,9.57,0,0,0,1.84.3l.87-1.29a19.14,19.14,0,0,0-2.26-.93A18,18,0,0,0,109.58,61.21Z" transform="translate(43.38 -3.14)"/><path class="m" d="M109.32,63.57c-.19,1-.37,1.95-.56,2.93a3.93,3.93,0,0,1,1.16.33,4,4,0,0,1,1.07.7l1.77-3a5.83,5.83,0,0,1-1.87-.27A6.8,6.8,0,0,1,109.32,63.57Z" transform="translate(43.38 -3.14)"/><path class="m" d="M103.43,70.84" transform="translate(43.38 -3.14)"/></svg>