<svg id="Calque_1" data-name="Calque 1" xmlns="http://www.w3.org/2000/svg" viewBox="0 0 193.02 93.61"><defs><style>.cls-1{font-size:12px;stroke:#e30613;font-family:MyriadPro-Regular, Myriad Pro;}.cls-1,.cls-10,.cls-13{fill:#e30613;}.cls-1,.cls-11,.cls-12,.cls-13,.cls-2,.cls-9{stroke-miterlimit:10;}.cls-2{fill:none;}.cls-10,.cls-11,.cls-12,.cls-13,.cls-2,.cls-3,.cls-4,.cls-5,.cls-7,.cls-8,.cls-9{stroke:#1d1d1b;}.cls-2,.cls-8,.cls-9{stroke-width:2px;}.cls-3{fill:#274294;}.cls-10,.cls-3,.cls-4,.cls-5,.cls-7,.cls-8{stroke-linecap:round;stroke-linejoin:round;}.cls-10,.cls-3,.cls-4,.cls-5,.cls-7{stroke-width:0.5px;}.cls-4,.cls-6,.cls-9{fill:#1d1d1b;}.cls-5{fill:#e6361e;}.cls-7,.cls-8{fill:#27348b;}.cls-11{fill:#312783;}.cls-11,.cls-12,.cls-13{stroke-width:0.25px;}.cls-12{fill:#f6f6f6;}</style></defs><text class="cls-1" transform="matrix(0.75, -0.22, 0.28, 0.96, 51.36, 63.62)">L</text><text class="cls-1" transform="matrix(0.75, -0.2, 0.25, 0.97, 55.54, 62.38)">A</text><text class="cls-1" transform="matrix(0.76, -0.18, 0.23, 0.97, 61, 60.97)"> </text><text class="cls-1" transform="matrix(0.76, -0.16, 0.21, 0.98, 62.88, 60.51)">B</text><text class="cls-1" transform="matrix(0.77, -0.14, 0.17, 0.98, 67.77, 59.46)">O</text><text class="cls-1" transform="matrix(0.77, -0.11, 0.14, 0.99, 74.03, 58.36)">U</text><text class="cls-1" transform="matrix(0.77, -0.08, 0.11, 0.99, 79.95, 57.55)">T</text><text class="cls-1" transform="matrix(0.78, -0.07, 0.09, 1, 84.54, 57.07)">I</text><text class="cls-1" transform="matrix(0.78, -0.05, 0.06, 1, 86.71, 56.85)">Q</text><text class="cls-1" transform="matrix(0.78, -0.03, 0.03, 1, 93.08, 56.46)">U</text><text class="cls-1" transform="matrix(0.78, 0, 0, 1, 99.05, 56.27)">E</text><text class="cls-1" transform="matrix(0.78, 0.01, -0.01, 1, 103.59, 56.27)"> </text><text class="cls-1" transform="matrix(0.78, 0.02, -0.03, 1, 105.56, 56.29)">F</text><text class="cls-1" transform="matrix(0.78, 0.04, -0.06, 1, 110.03, 56.43)">R</text><text class="cls-1" transform="matrix(0.78, 0.07, -0.09, 1, 115.05, 56.71)">A</text><text class="cls-1" transform="matrix(0.77, 0.09, -0.12, 0.99, 120.68, 57.19)">N</text><text class="cls-1" transform="matrix(0.77, 0.11, -0.15, 0.99, 126.72, 57.91)">C</text><text class="cls-1" transform="matrix(0.77, 0.14, -0.18, 0.98, 132.05, 58.7)">A</text><text class="cls-1" transform="matrix(0.76, 0.15, -0.2, 0.98, 137.63, 59.72)">I</text><text class="cls-1" transform="matrix(0.76, 0.17, -0.22, 0.98, 139.79, 60.15)">S</text><text class="cls-1" transform="matrix(0.76, 0.19, -0.24, 0.97, 144.24, 61.14)">E</text><text class="cls-1" transform="matrix(0.75, 0.2, -0.26, 0.97, 148.66, 62.24)"> </text><path class="cls-2" d="M315,273.11c9.78-4,43.53-16.5,84.81-7.76A135.59,135.59,0,0,1,434,277.51" transform="translate(-270.09 -221)"/><path class="cls-3" d="M425.7,212" transform="translate(-270.09 -221)"/><path class="cls-4" d="M423.66,236c-.47.49-2-.33-4-1.34-1.42-.75-6.86-3.61-6.42-4.84.35-1,4.62-1.11,7.5,1C423,232.46,424.29,235.34,423.66,236Z" transform="translate(-270.09 -221)"/><path class="cls-5" d="M374.51,208.9" transform="translate(-270.09 -221)"/><path class="cls-5" d="M385.5,201.71" transform="translate(-270.09 -221)"/><path class="cls-5" d="M385.88,215" transform="translate(-270.09 -221)"/><path class="cls-5" d="M434,264.42" transform="translate(-270.09 -221)"/><path class="cls-6" d="M383.43,275.06" transform="translate(-270.09 -221)"/><path class="cls-6" d="M432.87,257.57" transform="translate(-270.09 -221)"/><path class="cls-6" d="M344.32,278.29" transform="translate(-270.09 -221)"/><path class="cls-3" d="M392.58,275.06" transform="translate(-270.09 -221)"/><path class="cls-5" d="M445.47,273.32" transform="translate(-270.09 -221)"/><path class="cls-7" d="M352.2,231.51" transform="translate(-270.09 -221)"/><path class="cls-7" d="M406.54,221.29" transform="translate(-270.09 -221)"/><path class="cls-7" d="M350.64,275.16" transform="translate(-270.09 -221)"/><path class="cls-8" d="M392.48,223.45c11.25,2.38,19.35,7,25.9,10.71,3,1.71,5.26,3.21,9.79,6.21,7.64,5.08,14.14,9.41,20.38,15.65,2.2,2.19,4.73,5,5.16,8.66.12,1,.42,3.54-1.36,5.36-.54.56-2,1.77-6.43,1.89a32.74,32.74,0,0,1-15.72-4.05l-13.67-3-19.17-6.5a79.3,79.3,0,0,0-12.52-2.75c-1.73-.24-4.58-.48-10.23-.94-5.83-.49-8.75-.73-9.08-.73-9.09-.09-15,2.91-20.28,2.15-1-.14-4.25-.42-6.53-2.65h0a18.26,18.26,0,0,1-4.33-4.63h0a15.71,15.71,0,0,1-.27-7.69c2.15-9.41,13-12.92,14.37-13.34a72.36,72.36,0,0,1,23.81-5.66A76.43,76.43,0,0,1,392.48,223.45Z" transform="translate(-270.09 -221)"/><path class="cls-9" d="M352.14,249.74c5.94-1.31,11-1.14,17.59-.51,7.76.74,13.63,1.74,19.39,2.73,3.78.66,7.87,1.43,16,3.1,5.15,1.06,7.88,1.68,10.37,2.28,1.68.4,2.17.54,4.23,1.07l3.95,1c4.23,1.07,6.39,1.92,13.37,4,4.84,1.45,6.74,1.92,7.65,3.78a4.19,4.19,0,0,1,.22,3.27c-.76,1.82-3,2.32-3.6,2.45-2.23.49-2.88-.52-8.29-2.18-3.14-1-6.57-1.74-9.33-2.58l-1.35-.4c-1.42-.41-2.19-.59-4.87-1.4-3.37-1-4.78-1.51-8.54-2.53-3.27-.89-8-2.1-13.94-3.28-4.42-.92-8.43-1.51-11.92-1.9a139.31,139.31,0,0,0-15.46-.76c-6,0-11.39,0-11.43,0h0a40.47,40.47,0,0,0-4.77.32c-2.85.37-3.75.79-5,.29-1.65-.68-3.12-2.68-2.86-4.31C344,251.59,348.91,250.45,352.14,249.74Z" transform="translate(-270.09 -221)"/><path class="cls-10" d="M421.26,220" transform="translate(-270.09 -221)"/><path class="cls-9" d="M360.63,262.26" transform="translate(-270.09 -221)"/><path class="cls-8" d="M453.13,275" transform="translate(-270.09 -221)"/><path class="cls-8" d="M448.1,261.59" transform="translate(-270.09 -221)"/><path class="cls-9" d="M440.16,276.65" transform="translate(-270.09 -221)"/><path class="cls-9" d="M414.53,257.43" transform="translate(-270.09 -221)"/><path class="cls-9" d="M401.78,248.47" transform="translate(-270.09 -221)"/><path class="cls-9" d="M428.54,270.38" transform="translate(-270.09 -221)"/><path class="cls-9" d="M418.92,267.91" transform="translate(-270.09 -221)"/><path class="cls-9" d="M424.06,271.61" transform="translate(-270.09 -221)"/><path class="cls-9" d="M377.15,263.65" transform="translate(-270.09 -221)"/><path class="cls-9" d="M371.05,262.05" transform="translate(-270.09 -221)"/><path class="cls-9" d="M448.6,276.07" transform="translate(-270.09 -221)"/><path class="cls-9" d="M354.67,263" transform="translate(-270.09 -221)"/><path class="cls-11" d="M423.11,278.53l.26-2.78a9.66,9.66,0,0,1,3.06.93,9.53,9.53,0,0,1,2.6,1.88l-1.17,1.56a16.93,16.93,0,0,0-2.61-1.07A18.78,18.78,0,0,0,423.11,278.53Z" transform="translate(-270.09 -221)"/><path class="cls-12" d="M423.05,279.07l-.23,1.78a10.15,10.15,0,0,0,1.94.74,8.84,8.84,0,0,0,1.84.3l.87-1.29a19.14,19.14,0,0,0-2.26-.93A18,18,0,0,0,423.05,279.07Z" transform="translate(-270.09 -221)"/><path class="cls-13" d="M422.79,281.43c-.19,1-.37,1.95-.56,2.93a4.26,4.26,0,0,1,1.16.33,4,4,0,0,1,1.07.7l1.77-3a5.83,5.83,0,0,1-1.87-.27A6.41,6.41,0,0,1,422.79,281.43Z" transform="translate(-270.09 -221)"/><path class="cls-13" d="M416.9,288.7" transform="translate(-270.09 -221)"/></svg>